{"title":"War Dogs 2016 Movies HC HD TS XviD ESubs New Source +Sample ☻rDX","uid":15687850,"size":739339823,"categoryP":"video","categoryS":"movies","magnet":"?xt=urn:btih:c4ed7e0cf6c06e5dbac6e558ea7466b9af501b01&amp;dn=War+Dogs+2016+Movies+HC+HD+TS+XviD+ESubs+New+Source+%2BSample+%E2%98%BBrDX&amp;tr=udp%3A%2F%2Ftracker.leechers-paradise.org%3A6969&amp;tr=udp%3A%2F%2Fzer0day.ch%3A1337&amp;tr=udp%3A%2F%2Fopen.demonii.com%3A1337&amp;tr=udp%3A%2F%2Ftracker.coppersurfer.tk%3A6969&amp;tr=udp%3A%2F%2Fexodus.desync.com%3A6969","seeders":155,"leechers":50,"uploader":"basicssom","files":2,"time":1472362796,"description":"----------------------------------------------------------------\r\nWar Dogs 2016 English Movies HC HD TS XviD ESubs AAC New Source with Sample ☻rDX☻\r\n\r\nSCREEN SHOTS &amp; POSTER:\r\n  \nhttp://postimage.co.nr/2016/8/datacard/index.htm  \nhttp://postimage.co.nr/2016/8/datacard/1.html  \nhttp://postimage.co.nr/2016/8/datacard/2.html  \nhttp://postimage.co.nr/2016/8/datacard/3.html  \nhttp://postimage.co.nr/2016/8/datacard/4.html  \nhttp://postimage.co.nr/2016/8/datacard/5.html  \nhttp://postimage.co.nr/2016/8/datacard/6.html  \nhttp://postimage.co.nr/2016/8/datacard/7.html  \nhttp://postimage.co.nr/2016/8/datacard/8.html  \nhttp://postimage.co.nr/2016/8/datacard/9.html  \nhttp://postimage.co.nr/2016/8/datacard/10.html\r\n\r\nFormat                                   : Matroska\r\nFormat version                           : Version 4 / Version 2\r\nFile size                                : 698 MiB\r\nDuration                                 : 1 h 47 min\r\nOverall bit rate mode                    : Constant\r\nOverall bit rate                         : 911 kb/s\r\nMovie name                               : War Dogs 2016 English Movies HC HD TS XviD ESubs AAC New Source ☻rDX☻\r\n\r\nVideo\r\nID                                       : 2\r\nFormat                                   : AVC\r\nFormat/Info                              : Advanced Video Codec\r\nFormat profile                           :   \r\nFormat settings, CABAC                   : Yes\r\nFormat settings, ReFrames                : 2 frames\r\nFormat settings, GOP                     : M=1, N=12\r\nCodec ID                                 : V_MPEG4/ISO/AVC\r\nDuration                                 : 1 h 47 min\r\nBit rate mode                            : Constant\r\nBit rate                                 : 720 kb/s\r\nWidth                                    : 720 pixels\r\nHeight                                   : 304 pixels\r\nDisplay aspect ratio                     : 2.35:1\r\nFrame rate mode                          : Constant\r\nFrame rate                               : 25.000 FPS\r\nColor space                              : YUV\r\nChroma subsampling                       : 4:2:0\r\nBit depth                                : 8 bits\r\nScan type                                : Progressive\r\nBits/(Pixel*Frame)                       : 0.132\r\nStream size                              : 537 MiB (77%)\r\nTitle                                    : ☻rDX☻\r\n\r\nAudio\r\nID                                       : 1\r\nFormat                                   : MPEG Audio\r\nFormat version                           : Version 1\r\nFormat profile                           : Layer 3\r\nCodec ID                                 : A_MPEG/L3\r\nCodec ID/Hint                            : MP3\r\nDuration                                 : 1 h 47 min\r\nBit rate mode                            : Constant\r\nBit rate                                 : 192 kb/s\r\nChannel(s)                               : 2 channels\r\nSampling rate                            : 44.1 kHz\r\nCompression mode                         : Lossy\r\nDelay relative to video                  : 120 ms\r\nStream size                              : 147 MiB (21%)\r\nTitle                                    : ☻rDX☻\r\n\r\nIMDB \nhttp://www.imdb.com/title/tt2005151/","torrent":{"xt":"urn:btih:c4ed7e0cf6c06e5dbac6e558ea7466b9af501b01","amp;dn":"War+Dogs+2016+Movies+HC+HD+TS+XviD+ESubs+New+Source+%2BSample+%E2%98%BBrDX","amp;tr":["udp%3A%2F%2Ftracker.leechers-paradise.org%3A6969","udp%3A%2F%2Fzer0day.ch%3A1337","udp%3A%2F%2Fopen.demonii.com%3A1337","udp%3A%2F%2Ftracker.coppersurfer.tk%3A6969","udp%3A%2F%2Fexodus.desync.com%3A6969"],"infoHash":"c4ed7e0cf6c06e5dbac6e558ea7466b9af501b01","infoHashBuffer":{"type":"Buffer","data":[196,237,126,12,246,192,110,93,186,198,229,88,234,116,102,185,175,80,27,1]},"announce":[],"urlList":[]}}